# xmcd CD database file
#
# Track frame offsets:
#	150
#	16760
#	35540
#
# Disc length: 693 seconds
#
# Revision: 1
# Processed by: cddbd v1.5.1PL0 Copyright (c) Steve Scherf et al.
# Submitted via: CDex 1.51
#
DISCID=1702b303
DTITLE=石原千宝美 - 冬の匂いが消える頃
DYEAR=2001
DGENRE=JPop
TTITLE0=冬の匂いの消える頃
TTITLE1=白い奇蹟
TTITLE2=冬の匂いの消える頃(Instrumental)
EXTD=YEAR: 2001
EXTT0=
EXTT1=
EXTT2=
PLAYORDER=
